<?xml version="1.0" encoding="UTF-8"?>
<svg width="412px" height="242px" viewBox="0 0 263 153" version="1.1" xmlns="http://www.w3.org/2000/svg">
    <g id="Artboard" stroke="none" stroke-width="1" fill="none" fill-rule="evenodd">
        <g id="FoÌrsa_union_logo" fill-rule="nonzero">
            <path d="M134.6,63.71 C134.6,61.500861 132.809139,59.71 130.6,59.71 L122.21,59.71 L122.21,86.52 L130.61,86.52 C132.819139,86.52 134.61,84.729139 134.61,82.52 L134.6,63.71 Z M103.77,44 C103.72021,43.4558229 103.914871,42.9176682 104.30127,42.5312696 C104.687668,42.144871 105.225823,41.9502095 105.77,42 L137.21,42 C146.01935,42.0653378 153.144662,49.1906497 153.21,58 L153.26,87.54 C153.246599,94.1196019 149.266892,100.041784 143.18,102.54 L154.14,150 C154.75,152 153.22,152 153.22,152 L137.35,152 C137.35,152 135.97,152 135.52,150 L124.88,103.68 L122.28,103.68 L122.28,150 C122.334731,150.517282 122.164266,151.033107 121.812082,151.415915 C121.459898,151.798724 120.960042,152.011509 120.44,152 L105.75,152 C105.205823,152.04979 104.667668,151.855129 104.28127,151.46873 C103.894871,151.082332 103.70021,150.544177 103.75,150 L103.77,44 Z" id="Shape" fill="#3D8A94"></path>
            <path d="M18.72,150 C18.777856,150.516247 18.6098554,151.032318 18.2591778,151.415573 C17.9085001,151.798827 17.4093431,152.01189 16.89,152 L2.23,152 C1.68582293,152.04979 1.14766822,151.855129 0.761269604,151.46873 C0.374870989,151.082332 0.180209505,150.544177 0.23,150 L0.23,44 C0.180209505,43.4558229 0.374870989,42.9176682 0.761269604,42.5312696 C1.14766822,42.144871 1.68582293,41.9502095 2.23,42 L43.9,42 C44.437123,41.9771121 44.9592378,42.1804662 45.3393858,42.5606142 C45.7195338,42.9407622 45.9228879,43.462877 45.9,44 L45.9,57.91 C45.9198299,58.4462665 45.715491,58.9665774 45.3360342,59.3460342 C44.9565774,59.725491 44.4362665,59.9298299 43.9,59.91 L18.72,59.91 L18.72,86.06 L38.41,86.06 C38.9214579,86.0300247 39.4231718,86.2089727 39.8002154,86.5558528 C40.177259,86.9027329 40.3973238,87.3878213 40.41,87.9 L40.41,101.78 C40.41,102.884569 39.5145695,103.78 38.41,103.78 L18.72,103.78 L18.72,150 Z" id="Shape" fill="#3D8A94"></path>
            <path d="M157.34,121.11 C157.32017,120.573734 157.524509,120.053423 157.903966,119.673966 C158.283423,119.294509 158.803734,119.09017 159.34,119.11 L174,119.11 C174.543276,119.063834 175.079252,119.25967 175.464791,119.645209 C175.85033,120.030748 176.046166,120.566724 176,121.11 L176,131.49 C176,133.699139 177.790861,135.49 180,135.49 L184.43,135.49 C186.639139,135.49 188.43,133.699139 188.43,131.49 L188.43,107.67 C188.43,105.460861 186.639139,103.67 184.43,103.67 L173.52,103.67 C164.649397,103.681413 157.42782,96.5401753 157.34,87.67 L157.34,57.46 C157.355833,53.1901588 159.071357,49.1023928 162.107452,46.1000736 C165.143548,43.0977545 169.250249,41.4280663 173.52,41.46 L190.16,41.46 C198.996556,41.46 206.16,48.623444 206.16,57.46 L206.16,67.53 C206.20979,68.0741771 206.015129,68.6123318 205.62873,68.9987304 C205.242332,69.385129 204.704177,69.5797905 204.16,69.53 L189.55,69.53 C189.012877,69.5528879 188.490762,69.3495338 188.110614,68.9693858 C187.730466,68.5892378 187.527112,68.067123 187.55,67.53 L187.55,63.1 C187.592702,62.026612 187.185004,60.9841962 186.425404,60.2245958 C185.665804,59.4649955 184.623388,59.0572975 183.55,59.1 L179.88,59.1 C178.814204,59.0836422 177.787256,59.4998146 177.033535,60.2535353 C176.279815,61.007256 175.863642,62.0342035 175.88,63.1 L175.88,82.64 C175.88,84.849139 177.670861,86.64 179.88,86.64 L190.72,86.64 C194.969173,86.6212868 199.049717,88.3009863 202.054366,91.3056345 C205.059014,94.3102827 206.738713,98.390827 206.72,102.64 L206.72,136.52 C206.754612,140.790552 205.085791,144.898803 202.082894,147.935482 C199.079997,150.972162 194.990672,152.686836 190.72,152.7 L173.52,152.7 C164.586319,152.694484 157.345516,145.453681 157.34,136.52 L157.34,121.11 Z" id="Shape" fill="#3D8A94"></path>
            <path d="M231.58,119 L239.51,119 L235.39,78.4 L231.58,119 Z M241.8,42 C242.904569,42 243.8,42.8954305 243.8,44 L262.11,150 C262.41,152 261.04,152 261.04,152 L245.16,152 C245.16,152 243.79,152 243.64,150 L241.64,136.72 L229.29,136.72 L227.29,150 C227.14,152 225.77,152 225.77,152 L209.9,152 C209.9,152 208.53,152 208.83,150 L227.15,44 C227.15,42.8954305 228.045431,42 229.15,42 L241.8,42 Z" id="Shape" fill="#3D8A94"></path>
            <path d="M80.5,63.1 C80.5427025,62.026612 80.1350045,60.9841962 79.3754042,60.2245958 C78.6158038,59.4649955 77.573388,59.0572975 76.5,59.1 L72,59.1 C70.9184985,59.0675402 69.8699794,59.4745939 69.0936761,60.2282864 C68.3173729,60.9819789 67.879513,62.0180116 67.88,63.1 L67.88,131.49 C67.9183586,133.730019 69.7598261,135.517851 72,135.49 L76.58,135.49 C77.6457965,135.506358 78.672744,135.090185 79.4264647,134.336465 C80.1801854,133.582744 80.5963578,132.555796 80.58,131.49 L80.5,63.1 Z M49.36,57.46 C49.36,48.623444 56.523444,41.46 65.36,41.46 L82.94,41.46 C87.2097512,41.4280663 91.3164524,43.0977545 94.3525477,46.1000736 C97.388643,49.1023928 99.1041672,53.1901588 99.12,57.46 L99.12,136.52 C99.1144837,145.453681 91.8736813,152.694484 82.94,152.7 L65.38,152.7 C56.5075287,152.617606 49.3631353,145.392838 49.38,136.52 L49.36,57.46 Z" id="Shape" fill="#3D8A94"></path>
            <path d="M95.93,11 L88.38,0 L75.26,0 C75.26,0 73.03,0 74.26,3.31 L77.89,10.71 L95.26,10.71 C95.5105282,10.7160846 95.7496404,10.816012 95.93,10.99" id="Shape" fill="#F05561"></path>
            <path d="M96.11,11.34 C96.0930262,11.2790333 96.073001,11.2189576 96.05,11.16 L95.93,11 C95.746133,10.8314208 95.509144,10.7323806 95.26,10.72 L77.9,10.72 L69.22,30 C68.13,32.82 70.09,32.82 70.09,32.82 L81.59,32.82 L95.26,13.54 C96.03,12.42 96.19,11.75 96.11,11.34" id="Shape" fill="#D34D5B"></path>
        </g>
    </g>
</svg>
